#!OML:ASF E:\motion texture\Top Level 1\Subject 1\Session 1\male.ASF
:FULLY-SPECIFIED
:DEGREES
355
root -3.49615 17.8546 0.997382 20.0209 -67.059 -14.9065
lowerback 3.22223 3.17414 4.52453
upperback -1.05938 4.48106 4.58643
thorax -2.92276 2.15945 1.95044
lowerneck -15.078 -6.26447 -8.14645
upperneck 7.44013 -7.61457 7.37149
head 5.28323 -3.48263 2.92145
rclavicle 5.74488e-014 -7.95139e-016
rhumerus -18.6391 -17.7384 -81.7532
rradius 30.6646
rwrist 15.9979
rhand -17.4031 -30.3721
rfingers 7.12502
rthumb 8.8464 -60.1667
lclavicle 5.74488e-014 -7.95139e-016
lhumerus -44.091 23.261 69.7554
lradius 25.8467
lwrist -32.6307
lhand -12.6448 24.4098
lfingers 7.12502
lthumb 13.4356 53.9565
rfemur -17.5251 -7.82914 25.2854
rtibia 54.3248
rfoot 0.295586 -21.5497
rtoes 0.48513
lfemur -24.133 -5.69531 -11.837
ltibia 23.1714
lfoot -4.61348 -4.38766
ltoes -4.76115
356
root -3.63178 17.8617 1.04662 19.4938 -67.0852 -14.4222
lowerback 3.28562 3.08108 4.29253
upperback -1.00244 4.34968 4.48201
thorax -2.90744 2.09983 1.97542
lowerneck -15.0956 -6.13034 -8.08378
upperneck 7.33578 -7.44574 7.41585
head 5.24 -3.39605 2.94363
rclavicle 1.39149e-015 -3.73715e-014
rhumerus -20.1797 -18.8816 -80.9473
rradius 29.1644
rwrist 16.935
rhand -17.558 -30.8528
rfingers 7.12502
rthumb 8.69686 -60.6536
lclavicle 1.39149e-015 -3.73715e-014
lhumerus -44.7717 24.3148 68.9926
lradius 24.843
lwrist -33.9307
lhand -12.5345 24.1958
lfingers 7.12502
lthumb 13.5419 53.7354
rfemur -18.4295 -8.20937 24.9869
rtibia 55.3448
rfoot 0.678515 -21.6125
rtoes 1.23793
lfemur -23.5446 -5.74438 -12.17
ltibia 23.2273
lfoot -4.82354 -4.37845
ltoes -4.48821
357
root -3.76636 17.8701 1.09526 18.9864 -67.1127 -13.9487
lowerback 3.34633 2.98664 4.06903
upperback -0.950298 4.21652 4.38313
thorax -2.89493 2.0389 2.00195
lowerneck -15.1205 -5.9931 -8.01601
upperneck 7.23325 -7.27231 7.45172
head 5.19766 -3.30749 2.96247
rclavicle -4.03533e-014 3.97569e-014
rhumerus -21.7411 -20.1515 -80.005
rradius 27.6752
rwrist 17.8943
rhand -17.6467 -31.3851
rfingers 7.12502
rthumb 8.61128 -61.1895
lclavicle -4.03533e-014 3.97569e-014
lhumerus -45.4498 25.3201 68.2334
lradius 23.9058
lwrist -35.196
lhand -12.407 23.9566
lfingers 7.12502
lthumb 13.6648 53.488
rfemur -19.341 -8.5843 24.6947
rtibia 56.2549
rfoot 1.00745 -21.6875
rtoes 1.96341
lfemur -22.9388 -5.79285 -12.4928
ltibia 23.2406
lfoot -5.03963 -4.35414
ltoes -4.23041
358
root -3.89988 17.8796 1.14322 18.5042 -67.1416 -13.4911
lowerback 3.40338 2.89111 3.85585
upperback -0.902606 4.082 4.2906
thorax -2.88425 1.97685 2.02985
lowerneck -15.1543 -5.85316 -7.9447
upperneck 7.13319 -7.09455 7.47968
head 5.1568 -3.21705 2.97831
rclavicle 3.97569e-015 1.98785e-014
rhumerus -23.334 -21.552 -78.904
rradius 26.2117
rwrist 18.9143
rhand -17.6636 -31.9439
rfingers 7.12502
rthumb 8.595 -61.7489
lclavicle 3.97569e-015 1.98785e-014
lhumerus -46.1184 26.2688 67.4904
lradius 23.037
lwrist -36.4169
lhand -12.2708 23.6917
lfingers 7.12502
lthumb 13.7961 53.2142
rfemur -20.2548 -8.95203 24.4118
rtibia 57.0462
rfoot 1.27814 -21.7762
rtoes 2.6505
lfemur -22.3176 -5.83705 -12.8032
ltibia 23.209
lfoot -5.264 -4.31539
ltoes -3.98982
359
root -4.03232 17.89 1.19033 18.0469 -67.1706 -13.0478
lowerback 3.45636 2.79441 3.65133
upperback -0.859746 3.946 4.2046
thorax -2.87569 1.91369 2.06023
lowerneck -15.1958 -5.7108 -7.86945
upperneck 7.03486 -6.91296 7.49945
head 5.11705 -3.12501 2.99101
rclavicle 2.74323e-014 1.51076e-014
rhumerus -24.9742 -23.0807 -77.6226
rradius 24.7924
rwrist 20.016
rhand -17.5964 -32.5126
rfingers 7.12502
rthumb 8.65984 -62.3149
lclavicle 2.74323e-014 1.51076e-014
lhumerus -46.7696 27.1542 66.7761
lradius 22.238
lwrist -37.5808
lhand -12.1257 23.4083
lfingers 7.12502
lthumb 13.9358 52.9213
rfemur -21.1673 -9.31237 24.139
rtibia 57.7104
rfoot 1.49199 -21.8802
rtoes 3.29957
lfemur -21.685 -5.87601 -13.1012
ltibia 23.1331
lfoot -5.49769 -4.26611
ltoes -3.77061
360
root -4.16372 17.9013 1.23654 17.6132 -67.201 -12.6174
lowerback 3.50446 2.69712 3.45415
upperback -0.821066 3.80917 4.12487
thorax -2.86818 1.84983 2.09354
lowerneck -15.2438 -5.56602 -7.78903
upperneck 6.93649 -6.72775 7.50991
head 5.07763 -3.03154 3.00003
rclavicle -2.8128e-014 -2.8625e-014
rhumerus -26.6759 -24.7198 -76.1457
rradius 23.4319
rwrist 21.1828
rhand -17.4666 -33.0723
rfingers 7.12502
rthumb 8.7851 -62.8694
lclavicle -2.8128e-014 -2.8625e-014
lhumerus -47.3916 27.9612 66.1106
lradius 21.5115
lwrist -38.6662
lhand -11.9731 23.1066
lfingers 7.12502
lthumb 14.083 52.6094
rfemur -22.0728 -9.66294 23.8758
rtibia 58.2394
rfoot 1.64931 -21.9992
rtoes 3.90621
lfemur -21.0417 -5.91062 -13.3871
ltibia 23.0122
lfoot -5.74484 -4.20942
ltoes -3.56593
361
root -4.29412 17.9133 1.2818 17.2003 -67.2322 -12.1972
lowerback 3.54691 2.59914 3.26407
upperback -0.785628 3.67132 4.05095
thorax -2.8603 1.7852 2.12945
lowerneck -15.2987 -5.41925 -7.70521
upperneck 6.83769 -6.53943 7.51353
head 5.03868 -2.93677 3.00639
rclavicle -1.93815e-014 -1.74931e-014
rhumerus -28.4553 -26.4581 -74.4515
rradius 22.1441
rwrist 22.4444
rhand -17.2874 -33.6089
rfingers 7.12502
rthumb 8.95807 -63.3988
lclavicle -1.93815e-014 -1.74931e-014
lhumerus -47.9745 28.689 65.5046
lradius 20.8563
lwrist -39.6672
lhand -11.8125 22.7899
lfingers 7.12502
lthumb 14.2376 52.2819
rfemur -22.9655 -10.0038 23.6207
rtibia 58.6262
rfoot 1.74809 -22.1316
rtoes 4.46642
lfemur -20.3891 -5.94231 -13.6624
ltibia 22.8466
lfoot -6.00968 -4.15202
ltoes -3.38018
362
root -4.42349 17.9257 1.32602 16.8135 -67.2647 -11.792
lowerback 3.5847 2.50109 3.08344
upperback -0.754283 3.53353 3.98222
thorax -2.8533 1.7203 2.16586
lowerneck -15.3594 -5.27086 -7.61711
upperneck 6.73856 -6.34879 7.51039
head 5.00016 -2.84109 3.0099
rclavicle 4.14466e-014 6.83819e-014
rhumerus -30.3331 -28.2727 -72.5259
rradius 20.9438
rwrist 23.8008
rhand -17.0704 -34.11
rfingers 7.12502
rthumb 9.16737 -63.8908
lclavicle 4.14466e-014 6.83819e-014
lhumerus -48.5055 29.3238 64.9776
lradius 20.2735
lwrist -40.564
lhand -11.6494 22.4707
lfingers 7.12502
lthumb 14.3949 51.9515
rfemur -23.8424 -10.3311 23.3766
rtibia 58.8654
rfoot 1.78982 -22.2778
rtoes 4.98941
lfemur -19.731 -5.97073 -13.9239
ltibia 22.64
lfoot -6.28628 -4.09429
ltoes -3.24473
363
root -4.55183 17.9385 1.3691 16.4494 -67.2978 -11.3977
lowerback 3.61763 2.40294 2.91067
upperback -0.727294 3.39573 3.91793
thorax -2.84741 1.65513 2.20283
lowerneck -15.4226 -5.12056 -7.51973
upperneck 6.63645 -6.15603 7.4954
head 4.96043 -2.74488 3.00823
rclavicle 5.36719e-015 -2.62396e-014
rhumerus -32.3255 -30.1287 -70.3597
rradius 19.8416
rwrist 25.2436
rhand -16.8175 -34.5702
rfingers 7.12502
rthumb 9.41142 -64.3401
lclavicle 5.36719e-015 -2.62396e-014
lhumerus -48.9751 29.8648 64.5394
lradius 19.7614
lwrist -41.3523
lhand -11.4767 22.1509
lfingers 7.12502
lthumb 14.5613 51.6198
rfemur -24.6995 -10.6449 23.1419
rtibia 58.9522
rfoot 1.77615 -22.4339
rtoes 5.46953
lfemur -19.0705 -5.99573 -14.1728
ltibia 22.3978
lfoot -6.56319 -4.03301
ltoes -3.14925
364
root -4.67921 17.9514 1.411 16.1154 -67.3318 -11.0221
lowerback 3.64374 2.30462 2.74759
upperback -0.703592 3.25777 3.85957
thorax -2.84043 1.58963 2.24097
lowerneck -15.4907 -4.96873 -7.42261
upperneck 6.5333 -5.9609 7.47887
head 4.92113 -2.64755 3.00614
rclavicle -9.41245e-014 2.46493e-014
rhumerus -34.4415 -31.9807 -67.9544
rradius 18.846
rwrist 26.7541
rhand -16.5549 -34.9804
rfingers 7.12502
rthumb 9.66484 -64.7386
lclavicle -9.41245e-014 2.46493e-014
lhumerus -49.3699 30.2981 64.2138
lradius 19.3219
lwrist -42.0055
lhand -11.3012 21.8221
lfingers 7.12502
lthumb 14.7303 51.2788
rfemur -25.5324 -10.9425 22.9203
rtibia 58.8823
rfoot 1.71171 -22.596
rtoes 5.89749
lfemur -18.4103 -6.0168 -14.4052
ltibia 22.1249
lfoot -6.82606 -3.95939
ltoes -3.06044
